<svg xmlns="http://www.w3.org/2000/svg" viewBox="0 0 24 24" width="48" height="48">
  <path fill="#0081FB" d="M16.924 3c-1.748 0-3.344.825-4.924 2.502C10.42 3.825 8.824 3 7.076 3 3.168 3 0 6.275 0 10.312c0 4.908 4.296 9.388 9.387 10.518.847.188 1.705.17 2.536 0 5.091-1.13 9.387-5.61 9.387-10.518C21.31 6.275 18.142 3 14.234 3h2.69zm-4.924 13.916c-3.79-.884-6.83-4.37-6.83-7.986 0-2.395 1.782-4.248 4.148-4.248 1.488 0 2.857.773 4.09 2.457l-1.408 9.777zm2.84 0l-1.408-9.777c1.233-1.684 2.602-2.457 4.09-2.457 2.366 0 4.148 1.853 4.148 4.248 0 3.616-3.04 7.102-6.83 7.986z"/>
</svg>
